<svg width="1066.667" height="1066.667" xmlns="http://www.w3.org/2000/svg"><path style="fill:#fafafa;stroke-width:1.06667" d="M18.565 800.902c-.472-.763-.293-.942.47-.47.678.418 1.232.972 1.232 1.231 0 .259-.212.47-.47.47-.26 0-.814-.554-1.232-1.231zm102.4-158.933c-.472-.763-.293-.942.47-.47.678.418 1.232.972 1.232 1.23 0 .26-.212.471-.47.471-.26 0-.814-.554-1.232-1.231zm823.568.164c.363-.586.9-1.066 1.193-1.066.293 0 .237.48-.126 1.066-.363.587-.9 1.067-1.193 1.067-.293 0-.236-.48.126-1.067zm-823.466-217.6c.362-.586.899-1.066 1.192-1.066.294 0 .237.48-.126 1.066-.362.587-.899 1.067-1.192 1.067-.294 0-.237-.48.126-1.067zm823.365-.164c-.472-.763-.293-.942.47-.47.677.418 1.231.972 1.231 1.23 0 .26-.211.471-.47.471s-.813-.554-1.231-1.231z"/><path style="fill:#1799ed;stroke-width:1.06667" d="M517.86 1012.224c-5.863-3.077-110.98-58.389-233.593-122.915C161.653 824.783 60.15 771.062 58.706 769.93c-1.445-1.134-3.832-3.753-5.304-5.822-2.073-2.914-2.77-5.411-3.09-11.087-.336-5.952.029-8.242 1.946-12.202 1.298-2.682 3.875-6.031 5.726-7.443 1.852-1.412 29.043-16.06 60.425-32.55 31.382-16.49 57.778-29.795 58.658-29.565.88.23 74.837 38.826 164.35 85.768 89.513 46.942 165.425 86.35 168.693 87.572 3.268 1.223 10.02 2.794 15.005 3.491 6.854.959 11.044.973 17.188.06 4.47-.665 10.754-2.133 13.967-3.262 3.213-1.13 78.858-40.371 168.1-87.205 89.242-46.833 163.32-85.573 164.616-86.088 1.95-.775 12.252 4.243 59.353 28.906 44.622 23.365 58.06 30.877 61.906 34.604 3.79 3.672 5.217 6.03 6.247 10.322.753 3.14 1.014 7.271.599 9.485-.405 2.156-1.635 5.683-2.733 7.837-1.099 2.153-3.36 5.055-5.024 6.45-1.665 1.393-107.881 57.711-236.036 125.15-214.328 112.787-233.48 122.652-238.893 123.043-5.422.392-6.726-.015-16.545-5.169z"/><path style="fill:#f14b37;stroke-width:1.06667" d="M526.933 798.605c-2.053-.778-107.893-56.248-235.2-123.266C164.427 608.319 58.886 552.192 57.2 550.609c-1.687-1.581-3.957-4.796-5.043-7.142-1.167-2.52-1.976-6.67-1.976-10.134 0-3.456.82-7.673 1.997-10.264 1.099-2.419 3.66-5.724 5.691-7.345 2.032-1.621 29.53-16.527 61.107-33.124 57.413-30.176 57.413-30.176 64.952-26.095 4.147 2.244 77.86 40.943 163.806 85.998 85.947 45.055 159.387 83.088 163.2 84.517 5.184 1.942 9.829 2.731 18.408 3.126 6.875.317 14.143.012 18.133-.76 3.663-.708 10.98-3.325 16.26-5.815 5.28-2.49 80.64-41.776 167.466-87.303 86.827-45.527 158.382-82.932 159.011-83.122.63-.19 27.148 13.301 58.93 29.981 31.781 16.68 59.26 31.771 61.065 33.536 1.805 1.764 4.07 4.677 5.035 6.472 1.097 2.042 1.767 5.862 1.79 10.198.03 5.716-.49 7.828-2.957 12.024-1.645 2.8-4.765 6.232-6.933 7.626-2.168 1.395-104.741 55.556-227.941 120.358S551.817 792.907 547.681 795.039c-4.135 2.132-9.655 4.125-12.266 4.428-2.735.318-6.331-.048-8.482-.862z"/><path style="fill:#001222;stroke-width:1.06667" d="M515.2 575.054c-6.747-3.523-111.627-58.712-233.067-122.64-121.44-63.93-222.53-117.684-224.645-119.455-2.115-1.77-4.69-5-5.722-7.174-1.032-2.175-2.124-5.804-2.428-8.065-.303-2.261.077-6.353.844-9.094.89-3.178 2.968-6.581 5.74-9.4 3.527-3.587 48.184-27.48 237.411-127.022C526.4 49.6 526.4 49.6 533.333 49.61c6.934.01 6.934.01 239.467 122.498 127.893 67.369 234.044 123.631 235.89 125.028 1.848 1.397 4.368 4.624 5.6 7.172 1.499 3.094 2.243 6.71 2.243 10.892 0 4.089-.743 7.795-2.142 10.686-1.179 2.435-3.219 5.431-4.534 6.66-1.314 1.228-107.51 57.565-235.99 125.194-225.045 118.459-233.835 122.976-240 123.341-6.072.36-7.03.05-18.667-6.027zm-95.467-154.753c2.347-.54 6.63-1.298 9.52-1.687 2.888-.388 7.088-1.354 9.333-2.146 2.244-.792 4.08-1.228 4.08-.97 0 .26 2.52-.504 5.6-1.695 3.08-1.192 7.28-2.891 9.334-3.776 2.053-.885 5.173-2.39 6.933-3.344 1.76-.954 5.716-3.58 8.79-5.835 3.075-2.256 6.915-5.414 8.534-7.02 1.619-1.604 4.26-4.506 5.87-6.447 2.927-3.53 2.927-3.53 17.6-3.956 8.07-.234 27.873-.698 44.006-1.03 16.134-.333 30.756-.773 32.495-.978 2.644-.313 4.042.541 8.534 5.209 2.954 3.07 8.731 7.732 12.838 10.359 4.107 2.626 10.928 6.29 15.16 8.14 4.23 1.85 9.23 3.635 11.11 3.966 1.88.33 3.89.894 4.469 1.252.578.357 5.899 1.528 11.823 2.602 7.15 1.297 15.95 1.96 26.174 1.97 8.471.01 18.311-.524 21.866-1.187a307.337 307.337 0 0 0 12.865-2.747c3.52-.847 7.12-1.726 8-1.952.88-.226 3.598-1.133 6.04-2.016s7.242-3.143 10.667-5.022c3.424-1.88 7.919-4.255 9.988-5.28 2.069-1.025 6.749-4.796 10.4-8.38 3.65-3.583 6.638-6.925 6.638-7.426 0-.5.705-1.495 1.566-2.21.861-.715 1.48-1.614 1.373-1.997-.106-.384.479-1.898 1.3-3.365.82-1.466 2.03-5.03 2.689-7.92.724-3.178.881-7.586.397-11.156-.44-3.245-1.656-7.841-2.7-10.212-1.045-2.372-2.176-4.552-2.514-4.845-.337-.293-1.723-2.121-3.08-4.062-1.355-1.941-4.055-5.061-5.998-6.934-1.944-1.872-4.411-4.01-5.483-4.75-1.073-.74-4.512-3.02-7.643-5.067-3.131-2.046-6.371-3.72-7.2-3.72-.829 0-1.507-.48-1.507-1.067s-.562-1.067-1.25-1.067c-.687 0-4.346-1.239-8.131-2.753-3.786-1.514-7.903-2.97-9.15-3.236-1.248-.266-4.429-.958-7.069-1.539-2.64-.58-8.4-1.568-12.8-2.194-4.417-.629-15.644-.917-25.067-.643-9.386.273-19.466 1.098-22.4 1.834-2.933.735-8.693 2.258-12.8 3.384-4.106 1.125-8.906 2.697-10.666 3.494-1.76.796-6.3 2.982-10.088 4.858-3.788 1.876-9.695 5.571-13.127 8.212-3.432 2.64-7.995 7.152-10.14 10.026-2.146 2.873-4.638 5.248-5.54 5.278-.901.03-8.119.245-16.039.477-7.92.232-27.36.725-43.2 1.095-15.84.37-30 .762-31.466.87-1.966.147-4.224-1.376-8.59-5.794-3.257-3.296-7.904-7.304-10.326-8.907-4.404-2.914-4.404-2.914-2.61-5.928.985-1.658 3.679-5.816 5.984-9.24 2.305-3.425 5.545-7.896 7.2-9.937 1.655-2.04 3.008-4.246 3.008-4.901 0-.655 1.011-2.106 2.247-3.224 1.236-1.117 3.105-3.712 4.153-5.765 1.049-2.053 2.918-4.648 4.154-5.765 1.235-1.118 2.246-2.569 2.246-3.224 0-.655 1.36-2.86 3.02-4.901 1.661-2.04 5.723-7.836 9.026-12.879 3.303-5.042 6.744-9.781 7.647-10.53.902-.75 1.64-1.82 1.64-2.38 0-.559 2.16-3.823 4.8-7.254 2.64-3.431 4.82-6.635 4.844-7.12.024-.484 1.464-2.542 3.2-4.573 1.736-2.032 3.157-4.106 3.157-4.61 0-.504.677-1.594 1.504-2.421.828-.828 1.668-1.927 1.867-2.442.2-.516 6.122-1.23 13.162-1.586 7.04-.357 13.52-.828 14.4-1.048.88-.22 3.04-.737 4.8-1.15 1.76-.411 6.08-1.526 9.6-2.475 3.52-.95 8.56-2.637 11.2-3.75 2.64-1.112 7.66-3.48 11.154-5.264 3.495-1.784 9.04-5.31 12.324-7.837 3.283-2.526 7.677-6.678 9.765-9.225 2.087-2.548 4.866-6.985 6.176-9.86 1.31-2.875 2.656-6.475 2.993-8 .336-1.525.53-5.589.428-9.03-.112-3.818-1.078-8.185-2.478-11.2-1.262-2.719-2.22-5.303-2.128-5.743.091-.44-.314-.8-.9-.8a1.066 1.066 0 0 1-1.067-1.058c0-.582-1.08-2.312-2.4-3.843a203.688 203.688 0 0 0-4.543-5.075c-1.179-1.26-5.499-4.52-9.6-7.245-4.102-2.726-9.617-6.103-12.257-7.506-2.64-1.402-7.68-3.549-11.2-4.77-3.52-1.222-8.08-2.723-10.134-3.337-2.053-.614-8.78-1.917-14.948-2.897-8.235-1.308-15.179-1.64-26.133-1.252-8.205.291-18.116 1.028-22.024 1.637-3.907.61-9.667 1.902-12.8 2.874-3.132.971-7.855 2.53-10.495 3.464-2.64.934-6.96 2.872-9.6 4.306-2.64 1.435-7.13 3.853-9.978 5.372-2.849 1.52-7.652 5.217-10.674 8.215-3.022 2.998-6.893 7.47-8.603 9.936-1.71 2.467-3.928 6.905-4.929 9.863-1.124 3.32-1.721 7.92-1.561 12.028.19 4.87 1.154 8.526 3.601 13.653 1.838 3.85 5.481 9.381 8.096 12.29 2.615 2.908 7.415 7.12 10.668 9.36 3.252 2.24 5.914 4.304 5.914 4.586 0 .282-1.712 2.602-3.805 5.156s-3.5 4.643-3.129 4.643c.372 0-.93 2.04-2.894 4.534-1.964 2.493-5.462 7.413-7.774 10.933-2.311 3.52-5.835 8.44-7.829 10.933-1.994 2.494-3.348 4.534-3.007 4.534.34 0-1.642 3.064-4.405 6.81-2.763 3.745-7.184 10.025-9.824 13.955-2.64 3.93-5.28 7.725-5.867 8.434-.586.71-1.546 2.088-2.133 3.062-.587.974-4.169 6.234-7.96 11.688-3.793 5.455-8.353 12.121-10.134 14.814-3.24 4.897-3.24 4.897-11.773 5.127-4.693.126-11.413.664-14.933 1.195-3.52.531-9.572 1.665-13.45 2.52-3.877.855-11.317 3.319-16.533 5.476-5.216 2.157-10.915 4.716-12.664 5.687-1.75.97-3.824 2.365-4.61 3.098-.786.734-1.857 1.334-2.382 1.334-.524 0-4.263 3.246-8.31 7.213-4.047 3.968-8.61 9.683-10.139 12.7-1.529 3.017-3.067 7.091-3.418 9.053-.35 1.962-.66 6.573-.686 10.247-.026 3.673.424 7.273 1 8 .576.726 1.589 3 2.251 5.053.662 2.054 2.433 5.174 3.936 6.934 1.503 1.76 4.023 4.67 5.602 6.467 1.578 1.798 4.31 4.187 6.07 5.31 1.76 1.122 3.44 2.315 3.733 2.652.293.336 2.933 2.047 5.867 3.803 2.933 1.756 8.795 4.722 13.026 6.59 4.23 1.87 9.23 3.67 11.11 4.002 1.88.33 3.933.92 4.563 1.31.63.389 5.71 1.503 11.29 2.476 5.809 1.012 16.526 1.818 25.077 1.886 8.214.065 16.854-.323 19.2-.862z"/></svg>